<svg xmlns="http://www.w3.org/2000/svg" xmlns:xlink="http://www.w3.org/1999/xlink"><polygon points="0,200 100,103 106,103 100,103 100,97 100,97 94,91 88,91 88,85 88,91 94,91 94,97 100,103 106,109 112,115 112,115 118,115 112,109 112,115 118,121 124,127 130,127 130,133 130,127 130,127 124,121 118,121 118,115 118,115 118,121 118,121 118,121 118,121 124,121 118,121 118,121 124,127 130,133 136,133 136,139 136,139 142,139 136,133 136,139 142,139 142,145 142,145 142,139 136,133 130,127 130,133 136,133 130,127 130,133 136,139 136,133 130,127 130,127 130,127 130,127 124,127 130,127 124,127 124,121 118,121 118,115 112,115 118,115 112,115 118,121 124,127 124,121 118,115 118,121 124,121 118,121 118,115 118,121 118,115 112,109 112,109 106,103 100,103 100,97 100,103 106,109 106,109 112,109 112,115 112,115 118,115 112,115 118,121 118,115 112,109 112,109 112,115 118,115 118,115 118,115 112,109 106,103 100,103 106,103 106,103 106,109 112,115 118,115 112,109 112,109 106,109 106,109 106,103 106,109 106,109 112,115 112,109 106,109 106,103 100,103 106,109 106,109 106,109 106,103 100,97 100,97 94,97 94,91 94,97 94,97 94,91 94,97 100,103 106,103 100,97 100,103 106,103 100,103 106,109 106,103 100,103 100,97 100,97 100,103 100,103 106,109 112,109 106,103 106,109 106,103 100,97 94,97 94,91 94,97 94,97 94,91 94,97 100,103 100,97 100,103 100,97 100,103 100,97 94,91 88,91 94,91 94,91 94,91 94,91 94,91 94,91 88,85 88,91 94,97 94,91 88,91 88,91 94,97 100,97 94,97 94,91 88,85 82,79 76,79 76,79 82,79 76,79 82,85 88,91 88,91 94,97 100,103 106,109 106,109 106,109 112,109 106,109 106,109 106,109 112,109 106,109 400,200 " style="fill:rgb(34,161,225);stroke:rgb(0,61,125)"></polygon><polygon points="0,200 100,103 100,103 106,109 106,109 106,109 112,115 118,121 124,121 118,115 118,115 118,115 112,115 112,115 112,115 112,115 118,121 118,115 118,115 118,115 118,121 124,121 124,127 124,127 124,127 124,121 118,121 124,121 118,121 118,121 124,121 118,115 112,109 112,109 112,109 112,115 112,115 112,115 112,115 118,121 118,115 118,121 124,121 118,115 118,115 118,115 112,109 112,115 112,109 106,103 106,103 106,109 112,115 118,121 118,115 118,115 112,109 106,103 100,103 106,109 106,103 100,97 94,91 88,91 94,91 88,91 88,91 88,91 88,85 82,85 88,85 88,85 82,85 82,85 88,85 82,79 76,79 76,79 76,73 70,67 64,61 64,67 64,67 70,73 76,73 76,73 76,79 82,85 82,79 76,79 76,79 82,79 82,79 76,79 76,73 76,73 70,73 70,73 70,73 76,79 76,73 70,73 76,73 70,67 64,61 58,61 64,67 64,61 64,67 64,61 64,67 64,61 58,61 64,67 64,67 70,67 64,61 64,67 70,73 70,73 76,73 70,67 64,67 70,73 70,67 64,67 70,73 76,79 76,73 76,73 76,73 76,79 76,79 76,79 82,85 88,91 88,85 82,85 82,79 76,73 70,67 70,67 70,67 70,73 76,79 82,85 88,91 94,97 100,103 100,97 100,103 106,103 106,109 112,109 112,115 118,115 112,115 112,115 112,109 112,115 118,115 118,115 112,109 112,109 112,109 106,109 106,103 106,109 106,103 100,103 100,97 100,103 106,103 106,103 100,103 100,103 100,103 106,109 106,109 112,115 118,121 118,121 124,121 124,127 130,127 130,127 124,121 118,115 118,115 112,115 112,109 112,109 106,103 100,103 106,103 106,103 100,103 106,103 100,97 94,97 94,91 400,200 " style="fill:rgb(206,242,158);stroke:rgb(106,142,58)"></polygon><polygon points="0,200 100,103 106,109 106,109 112,115 112,115 112,115 112,109 106,109 106,109 112,115 118,121 124,127 124,121 124,121 124,121 118,121 124,121 124,121 124,127 124,127 130,133 130,133 136,139 142,145 148,145 148,151 154,157 154,151 154,157 154,151 148,145 148,145 142,145 142,145 148,151 148,151 154,157 154,151 148,145 142,145 148,145 142,139 142,139 142,139 142,139 142,139 136,133 136,139 142,145 148,145 148,145 148,151 154,151 148,151 154,151 154,157 154,157 154,151 148,151 154,157 154,157 160,157 154,151 154,157 154,157 160,163 160,163 166,163 160,163 160,157 160,157 154,151 148,145 142,139 142,145 142,139 142,145 148,151 154,157 160,157 154,151 148,145 142,139 142,139 136,133 136,133 130,127 130,127 130,127 130,133 130,127 124,121 124,121 118,115 118,115 112,109 112,115 118,121 124,121 118,121 124,127 130,133 130,133 136,133 130,127 124,127 130,133 136,133 136,133 136,139 142,139 136,139 136,133 130,133 136,139 142,145 142,139 136,133 130,127 130,133 136,139 142,145 148,145 142,145 148,151 154,151 154,157 160,163 160,157 154,151 148,145 142,139 142,145 148,151 154,157 160,157 160,163 160,157 154,151 154,157 154,157 160,157 160,163 166,163 166,163 166,169 172,169 166,163 166,163 160,163 166,169 166,163 166,163 160,163 166,163 160,157 154,151 154,151 148,145 148,145 148,145 148,145 148,151 154,157 154,157 154,157 154,157 160,157 160,157 154,151 154,157 160,163 166,163 160,163 160,157 160,163 160,157 154,157 154,157 160,157 160,163 160,163 160,163 166,169 166,163 160,157 154,151 148,151 148,145 148,145 142,139 142,139 142,145 142,145 142,145 148,151 154,157 154,157 154,157 160,163 400,200 " style="fill:rgb(187,3,41);stroke:rgb(87,0,0)"></polygon><polygon points="0,200 100,103 106,103 100,97 100,97 94,97 94,91 94,97 94,91 94,97 94,97 94,97 94,91 94,97 100,103 100,97 100,103 106,109 112,109 112,115 112,109 112,109 106,103 100,97 100,103 106,103 100,103 100,103 100,103 100,103 106,109 106,109 112,115 118,115 112,115 112,115 112,115 112,109 112,109 106,103 106,103 100,103 100,97 100,103 100,97 94,91 94,91 94,97 100,97 100,103 106,109 112,109 106,103 100,103 106,109 112,109 106,103 106,109 106,103 100,103 106,109 106,109 112,109 112,115 118,115 118,115 118,115 112,109 112,109 112,109 106,109 112,109 112,115 112,109 112,109 106,103 106,109 112,109 106,103 106,103 100,97 100,97 94,97 94,91 94,91 88,85 82,79 76,73 70,67 64,61 58,55 52,55 52,49 46,49 46,43 40,37 34,31 28,31 28,31 28,25 22,19 22,25 22,19 16,13 16,19 22,19 16,19 22,25 28,25 22,25 22,25 28,31 34,31 28,25 28,31 34,31 34,31 34,31 28,25 28,25 22,25 22,19 16,13 16,13 16,19 16,13 10,13 10,13 16,19 22,25 28,25 22,25 22,19 16,13 10,7 10,13 16,19 22,19 22,19 16,19 22,19 16,19 16,19 16,13 10,7 4,7 10,13 10,13 10,7 10,13 10,13 10,13 10,13 10,13 10,7 4,7 4,1 -2,1 4,7 4,1 4,1 -2,-5 -2,1 4,1 -2,-5 -2,-5 -8,-11 -14,-11 -14,-11 -14,-11 -8,-11 -8,-11 -14,-11 -14,-17 -14,-17 -14,-11 -14,-17 -20,-17 -14,-11 -14,-11 -14,-17 -14,-17 -20,-17 -14,-17 -14,-17 -14,-17 -20,-23 -20,-17 -20,-17 -20,-23 -20,-17 -14,-11 -8,-11 -8,-5 -8,-11 -8,-11 -8,-11 -8,-11 -8,-11 -14,-11 -8,-5 400,200 " style="fill:rgb(54,61,212);stroke:rgb(0,0,112)"></polygon><polygon points="0,200 100,103 106,109 112,109 106,109 112,109 106,103 100,97 100,97 100,97 100,103 100,97 94,97 94,91 94,91 94,91 94,91 88,91 88,85 88,85 82,79 76,79 76,79 82,85 82,79 82,85 82,79 82,79 76,79 82,85 88,91 94,91 88,85 82,79 76,79 82,79 82,79 82,85 88,85 88,85 82,85 82,79 82,85 88,85 82,85 82,85 88,91 88,85 88,85 88,91 94,97 94,91 94,97 100,103 100,103 100,103 100,97 100,97 100,97 100,103 106,109 112,115 112,115 118,121 124,121 118,115 118,115 118,121 124,121 118,115 118,115 112,109 106,109 112,115 118,121 118,121 118,121 124,121 118,115 118,121 118,121 118,121 118,121 118,121 118,115 118,115 118,115 118,121 118,121 118,121 118,115 112,115 118,115 112,115 112,115 112,109 106,103 100,103 106,103 106,103 106,103 106,103 106,103 100,97 100,103 100,97 100,97 94,97 100,103 106,109 112,109 112,109 112,115 112,109 112,109 112,109 106,103 100,97 94,91 88,91 88,91 88,85 88,91 94,97 100,97 94,97 100,103 106,103 106,103 100,97 100,103 106,103 106,103 100,97 94,91 94,91 88,85 82,85 88,91 88,91 88,91 94,97 94,97 94,91 94,91 94,97 94,97 100,103 106,109 106,103 100,103 100,103 106,103 100,103 106,109 112,109 112,109 106,109 106,103 106,109 106,109 106,109 106,103 106,103 100,97 94,91 88,85 82,85 82,79 76,79 82,79 76,73 70,73 76,73 70,67 70,67 64,67 64,67 64,67 70,73 76,73 76,79 76,73 70,67 64,67 64,61 58,55 52,55 52,49 46,49 52,55 52,49 46,49 46,43 40,43 46,49 46,43 40,37 40,37 40,37 40,43 400,200 " style="fill:rgb(252,252,45);stroke:rgb(152,152,0)"></polygon><polygon points="0,200 100,103 100,97 100,103 100,103 100,97 94,91 94,91 88,85 82,85 82,79 76,79 82,79 82,79 82,85 88,91 88,91 88,85 88,85 82,79 76,79 82,85 88,91 94,91 94,97 94,97 94,97 94,97 100,97 100,97 100,97 94,97 100,103 100,97 100,97 94,91 94,97 94,91 88,85 82,79 82,85 82,85 88,91 88,91 88,91 88,91 88,91 88,91 88,85 88,85 88,85 82,79 76,79 76,73 70,67 70,73 76,73 70,67 64,67 64,67 64,67 70,67 70,73 76,79 82,85 88,91 88,91 94,97 94,97 100,97 94,91 88,91 94,91 94,97 100,103 106,109 112,115 118,121 118,115 112,109 106,109 112,109 112,115 118,115 112,109 106,109 106,109 106,103 100,103 106,103 106,109 106,103 100,103 100,97 94,91 94,97 94,97 100,103 100,103 106,103 100,103 100,97 94,91 88,85 88,91 94,91 88,91 88,91 88,85 82,85 82,85 82,85 88,85 88,91 88,91 94,91 94,97 100,103 106,103 100,97 100,103 100,103 100,97 100,97 94,97 100,103 106,103 100,97 94,97 94,97 94,91 94,91 88,91 94,91 94,91 94,97 94,91 88,91 88,85 88,91 88,85 82,85 88,91 94,97 100,97 100,97 100,103 100,103 100,97 94,97 94,91 88,91 94,97 100,103 106,103 106,103 100,97 100,97 100,97 100,97 100,103 106,103 100,97 94,91 94,91 88,91 88,85 88,85 88,85 88,85 82,79 76,73 76,79 76,73 76,73 76,73 76,79 82,79 76,79 76,73 76,79 76,79 76,79 82,79 76,73 70,67 64,67 70,73 76,73 70,73 76,79 76,73 70,73 76,73 76,73 70,67 64,61 64,67 64,61 58,55 58,55 400,200 " style="fill:rgb(224,157,118);stroke:rgb(124,57,18)"></polygon><polygon points="0,200 100,103 106,109 112,109 106,109 106,103 100,97 94,97 94,91 94,91 88,85 88,91 88,85 82,85 88,85 88,91 88,85 82,85 82,85 88,91 88,91 88,85 88,85 88,85 82,85 82,79 82,85 88,91 94,91 94,91 88,91 88,91 88,85 82,79 82,85 82,79 82,85 88,91 94,91 94,97 94,91 88,91 94,91 88,85 88,85 82,79 82,85 82,85 88,85 82,85 82,79 76,73 76,73 70,67 70,67 64,67 70,67 64,61 64,61 58,55 52,49 52,49 46,43 40,43 40,43 46,49 52,49 52,49 46,43 46,43 46,49 46,43 46,49 52,55 52,55 52,49 46,43 40,43 40,43 40,37 40,37 34,31 28,25 22,19 22,19 16,13 10,7 10,13 10,13 10,7 4,1 -2,-5 -2,1 4,7 4,1 -2,-5 -2,-5 -2,1 4,1 -2,1 -2,1 -2,1 4,1 4,1 4,1 -2,1 -2,1 -2,-5 -8,-11 -8,-5 -2,-5 -8,-5 -8,-11 -8,-11 -14,-17 -14,-11 -8,-5 -2,-5 -2,1 -2,-5 -2,-5 -8,-11 -14,-17 -14,-11 -8,-11 -8,-5 -2,-5 -2,1 -2,1 4,1 4,1 -2,-5 -2,1 4,1 -2,1 4,7 4,1 -2,-5 -2,-5 -2,-5 -8,-5 -2,1 -2,1 4,1 -2,-5 -8,-5 -2,-5 -8,-5 -2,1 4,1 4,7 4,7 4,1 4,1 -2,1 -2,-5 -8,-11 -14,-11 -8,-5 -2,-5 -8,-11 -8,-5 -2,-5 -8,-11 -14,-17 -14,-11 -8,-5 -8,-5 -8,-5 -2,-5 -8,-11 -14,-17 -14,-11 -8,-5 -8,-11 -8,-5 -2,-5 -8,-5 -2,1 -2,-5 -2,1 -2,-5 -2,1 -2,1 4,1 -2,1 4,7 4,1 4,7 10,7 4,1 -2,-5 -2,-5 -8,-11 -8,-11 -14,-11 -8,-11 -14,-17 -20,-17 -20,-17 -14,-11 400,200 " style="fill:rgb(116,109,95);stroke:rgb(16,9,0)"></polygon><polygon points="0,200 100,97 94,91 88,91 88,85 88,85 82,79 82,85 82,85 82,85 82,85 88,91 94,91 94,97 94,97 94,91 88,85 82,79 76,73 76,73 70,67 64,61 64,61 58,61 64,67 64,61 64,67 64,61 58,55 52,55 58,61 64,67 70,73 76,79 76,73 70,67 64,67 64,61 64,67 64,61 58,61 64,67 70,67 64,67 70,73 70,73 70,67 64,67 64,67 70,67 70,73 76,73 76,79 76,79 82,85 82,85 82,79 76,73 70,67 70,73 76,73 76,79 82,79 76,79 82,79 76,79 82,85 82,79 76,79 82,79 82,79 82,79 76,79 76,73 76,73 76,79 82,79 82,79 82,79 82,79 76,73 70,67 70,73 70,73 70,73 70,73 70,73 70,67 64,61 64,61 58,61 64,61 58,61 58,61 64,61 58,61 58,61 64,67 70,67 70,67 70,73 76,79 82,79 76,73 76,79 82,85 88,85 82,85 88,91 94,97 100,97 100,103 100,103 106,109 112,115 112,115 118,121 118,115 118,115 118,115 112,109 106,103 100,97 100,103 106,103 106,103 106,103 100,103 106,109 112,115 118,121 124,121 118,121 124,127 124,127 130,133 136,133 130,133 130,133 136,133 136,139 136,133 130,127 130,127 124,121 124,127 124,121 118,121 118,121 118,115 112,109 112,115 112,109 112,115 118,115 118,121 124,121 118,115 118,115 112,109 112,109 112,109 106,109 106,103 100,97 100,103 106,103 100,97 100,97 94,91 88,91 88,91 88,91 88,85 88,91 88,85 88,91 88,91 94,91 94,97 94,91 94,91 88,91 94,97 100,97 94,97 100,97 100,97 100,103 100,97 94,97 100,97 94,91 88,85 88,85 88,85 88,91 88,91 94,91 88,85 82,79 400,200 " style="fill:rgb(195,143,121);stroke:rgb(95,43,21)"></polygon><polygon points="0,200 100,103 100,103 100,97 94,97 94,97 94,91 94,91 94,97 100,103 106,109 112,115 118,121 118,115 118,121 118,121 118,115 118,115 118,115 118,121 124,127 130,127 124,121 124,127 124,121 118,115 118,115 112,115 118,121 124,121 118,121 118,115 118,115 112,109 112,109 112,109 106,103 106,109 106,103 106,109 112,109 106,109 106,103 106,103 106,103 100,103 106,103 106,103 100,97 94,97 94,91 88,85 82,85 88,91 94,97 100,103 100,97 100,97 100,97 100,97 94,97 94,91 94,97 100,97 100,103 100,97 94,97 100,97 94,97 94,91 94,97 94,97 100,97 100,103 100,97 94,97 100,103 106,103 106,103 106,103 100,97 94,91 88,85 88,85 88,85 88,85 88,91 88,91 94,91 94,91 94,91 88,91 88,91 94,91 88,85 82,79 76,73 76,79 82,85 82,85 88,91 94,97 100,97 100,103 106,103 100,103 100,97 100,103 100,103 106,109 112,115 112,115 112,115 112,109 106,103 100,97 100,103 106,103 100,103 106,103 106,109 106,109 112,109 112,109 112,109 106,103 106,109 112,109 112,109 112,115 118,121 118,121 124,121 118,115 112,109 112,109 106,109 106,109 112,109 112,115 118,115 112,109 106,109 112,109 106,109 112,109 106,109 106,109 112,109 106,103 106,109 106,103 106,109 106,109 112,109 112,115 112,115 118,115 112,115 112,115 118,115 118,115 112,115 112,109 106,109 106,109 106,103 106,103 100,97 94,91 88,85 88,91 88,85 88,85 88,85 88,85 88,85 82,79 82,85 88,85 82,85 82,85 88,85 88,91 94,97 100,97 100,97 100,103 106,109 106,109 112,109 106,109 112,115 112,115 112,115 118,121 124,127 130,127 124,127 124,121 118,121 400,200 " style="fill:rgb(231,246,237);stroke:rgb(131,146,137)"></polygon><polygon points="0,200 100,103 106,103 106,109 112,109 112,115 118,115 118,115 112,109 112,109 106,109 106,109 112,115 118,121 118,115 118,121 118,115 112,115 118,121 124,121 124,127 130,127 130,127 130,127 130,127 130,133 130,127 130,133 130,133 136,139 136,133 136,133 136,139 136,133 136,133 136,139 136,139 142,145 142,139 136,139 136,133 130,127 124,121 124,121 124,121 124,127 130,133 130,133 136,139 142,145 142,139 136,133 136,139 136,139 136,139 142,139 142,145 142,139 142,139 136,133 130,127 124,121 118,115 118,121 124,121 124,121 118,121 124,121 124,121 118,121 124,121 124,121 124,121 118,115 118,121 124,127 124,127 124,121 124,121 124,121 124,127 124,127 124,121 124,127 124,127 124,121 124,121 124,121 118,121 124,127 130,127 130,127 124,121 124,127 130,127 130,133 136,133 130,127 130,133 136,133 136,139 136,133 136,139 142,139 136,133 130,127 124,127 130,127 124,121 124,127 124,121 118,121 124,121 118,121 124,121 118,115 118,121 124,121 118,115 112,109 112,115 118,121 124,121 124,127 124,121 118,121 118,115 118,115 118,121 124,121 118,115 112,115 112,115 112,115 112,109 106,103 106,109 106,103 106,109 106,109 112,109 106,109 106,109 112,115 118,121 118,115 118,121 124,127 124,121 118,121 124,127 124,121 124,127 124,127 130,133 136,139 136,139 136,133 130,133 130,133 136,139 142,139 142,145 148,151 148,145 148,145 142,139 142,145 148,151 154,157 154,157 154,151 148,145 142,145 142,139 142,139 142,139 142,145 148,151 148,151 154,151 148,151 154,151 154,157 154,157 160,163 160,163 166,169 172,175 172,169 172,175 172,175 172,175 172,175 172,175 172,175 172,175 178,181 184,181 184,181 184,187 400,200 " style="fill:rgb(116,94,11);stroke:rgb(16,0,0)"></polygon></svg>